<svg width="40" height="40" viewBox="0 0 40 40" fill="none" xmlns="http://www.w3.org/2000/svg">
  <!-- Background circle -->
  <circle cx="20" cy="20" r="18" fill="#f43f5e" opacity="0.08"/>

  <!-- LEFT LOBSTER (facing right) -->
  <!-- Head -->
  <circle cx="12" cy="20" r="3" fill="#f43f5e"/>

  <!-- Body -->
  <ellipse cx="14" cy="25" rx="3" ry="5" fill="#f43f5e"/>

  <!-- Left claw (reaching toward center) -->
  <path d="M 10 22 Q 8 21 7 20" fill="none" stroke="#f43f5e" stroke-width="2" stroke-linecap="round"/>
  <circle cx="7" cy="20" r="1.5" fill="#f43f5e"/>

  <!-- Right claw (reaching toward center) -->
  <path d="M 14 22 Q 17 20 18 19" fill="none" stroke="#f43f5e" stroke-width="2" stroke-linecap="round"/>
  <circle cx="18" cy="19" r="1.8" fill="#f43f5e"/>

  <!-- Antenna -->
  <line x1="11" y1="18" x2="9" y2="14" stroke="#f43f5e" stroke-width="1.2" stroke-linecap="round"/>

  <!-- Tail -->
  <ellipse cx="15" cy="29" rx="2.5" ry="1.5" fill="#f43f5e" opacity="0.7"/>

  <!-- Eye -->
  <circle cx="13" cy="20" r="0.8" fill="white"/>

  <!-- RIGHT LOBSTER (facing left) -->
  <!-- Head -->
  <circle cx="28" cy="20" r="3" fill="#f43f5e"/>

  <!-- Body -->
  <ellipse cx="26" cy="25" rx="3" ry="5" fill="#f43f5e"/>

  <!-- Right claw (reaching toward center) -->
  <path d="M 30 22 Q 32 21 33 20" fill="none" stroke="#f43f5e" stroke-width="2" stroke-linecap="round"/>
  <circle cx="33" cy="20" r="1.5" fill="#f43f5e"/>

  <!-- Left claw (reaching toward center) -->
  <path d="M 26 22 Q 23 20 22 19" fill="none" stroke="#f43f5e" stroke-width="2" stroke-linecap="round"/>
  <circle cx="22" cy="19" r="1.8" fill="#f43f5e"/>

  <!-- Antenna -->
  <line x1="29" y1="18" x2="31" y2="14" stroke="#f43f5e" stroke-width="1.2" stroke-linecap="round"/>

  <!-- Tail -->
  <ellipse cx="25" cy="29" rx="2.5" ry="1.5" fill="#f43f5e" opacity="0.7"/>

  <!-- Eye -->
  <circle cx="27" cy="20" r="0.8" fill="white"/>

  <!-- Heart between them (subtle) -->
  <path d="M 20 18 L 21 16 Q 21 15 20 15 Q 19 15 19 16 L 20 18" fill="#f43f5e" opacity="0.3"/>
</svg>
